<mxfile host="app.diagrams.net" modified="2021-10-11T07:09:39.884Z" agent="5.0 (Windows NT 10.0; Win64; x64) AppleWebKit/537.36 (KHTML, like Gecko) Chrome/94.0.4606.71 Safari/537.36 Edg/94.0.992.38" etag="jlY_ifiODPMq7Zzyd2Lq" version="15.5.0" type="github">
  <diagram id="ucGzEWBiwjrY5IGXXlJs" name="Page-1">
    <mxGraphModel dx="782" dy="436" grid="1" gridSize="10" guides="1" tooltips="1" connect="1" arrows="1" fold="1" page="1" pageScale="1" pageWidth="827" pageHeight="1169" math="0" shadow="0">
      <root>
        <mxCell id="0" />
        <mxCell id="1" parent="0" />
        <mxCell id="9mMANpVzmbLBMYKmAXG6-2" style="edgeStyle=orthogonalEdgeStyle;rounded=0;orthogonalLoop=1;jettySize=auto;html=1;" edge="1" parent="1" source="9mMANpVzmbLBMYKmAXG6-1" target="9mMANpVzmbLBMYKmAXG6-3">
          <mxGeometry relative="1" as="geometry">
            <mxPoint x="160" y="190" as="targetPoint" />
          </mxGeometry>
        </mxCell>
        <mxCell id="9mMANpVzmbLBMYKmAXG6-1" value="兑入" style="rounded=0;whiteSpace=wrap;html=1;" vertex="1" parent="1">
          <mxGeometry x="100" y="40" width="120" height="60" as="geometry" />
        </mxCell>
        <mxCell id="9mMANpVzmbLBMYKmAXG6-5" style="edgeStyle=orthogonalEdgeStyle;rounded=0;orthogonalLoop=1;jettySize=auto;html=1;entryX=0.5;entryY=0;entryDx=0;entryDy=0;" edge="1" parent="1" source="9mMANpVzmbLBMYKmAXG6-3" target="9mMANpVzmbLBMYKmAXG6-4">
          <mxGeometry relative="1" as="geometry" />
        </mxCell>
        <mxCell id="9mMANpVzmbLBMYKmAXG6-3" value="选择Token及数量" style="rounded=0;whiteSpace=wrap;html=1;" vertex="1" parent="1">
          <mxGeometry x="100" y="140" width="120" height="60" as="geometry" />
        </mxCell>
        <mxCell id="9mMANpVzmbLBMYKmAXG6-7" style="edgeStyle=orthogonalEdgeStyle;rounded=0;orthogonalLoop=1;jettySize=auto;html=1;" edge="1" parent="1" source="9mMANpVzmbLBMYKmAXG6-4">
          <mxGeometry relative="1" as="geometry">
            <mxPoint x="160" y="380" as="targetPoint" />
          </mxGeometry>
        </mxCell>
        <mxCell id="9mMANpVzmbLBMYKmAXG6-4" value="实时计算可以兑换RMBC" style="rounded=0;whiteSpace=wrap;html=1;" vertex="1" parent="1">
          <mxGeometry x="100" y="240" width="120" height="60" as="geometry" />
        </mxCell>
        <mxCell id="9mMANpVzmbLBMYKmAXG6-6" value="需要考虑浮点问题" style="text;html=1;strokeColor=none;fillColor=none;align=center;verticalAlign=middle;whiteSpace=wrap;rounded=0;" vertex="1" parent="1">
          <mxGeometry x="230" y="250" width="60" height="30" as="geometry" />
        </mxCell>
        <mxCell id="9mMANpVzmbLBMYKmAXG6-10" style="edgeStyle=orthogonalEdgeStyle;rounded=0;orthogonalLoop=1;jettySize=auto;html=1;entryX=0.5;entryY=0;entryDx=0;entryDy=0;" edge="1" parent="1" source="9mMANpVzmbLBMYKmAXG6-8" target="9mMANpVzmbLBMYKmAXG6-9">
          <mxGeometry relative="1" as="geometry" />
        </mxCell>
        <mxCell id="9mMANpVzmbLBMYKmAXG6-8" value="发起转账交易" style="rounded=0;whiteSpace=wrap;html=1;" vertex="1" parent="1">
          <mxGeometry x="100" y="330" width="120" height="60" as="geometry" />
        </mxCell>
        <mxCell id="9mMANpVzmbLBMYKmAXG6-12" style="edgeStyle=orthogonalEdgeStyle;rounded=0;orthogonalLoop=1;jettySize=auto;html=1;entryX=0.5;entryY=0;entryDx=0;entryDy=0;" edge="1" parent="1" source="9mMANpVzmbLBMYKmAXG6-9" target="9mMANpVzmbLBMYKmAXG6-11">
          <mxGeometry relative="1" as="geometry" />
        </mxCell>
        <mxCell id="9mMANpVzmbLBMYKmAXG6-9" value="区块链转账交易成功" style="rounded=0;whiteSpace=wrap;html=1;" vertex="1" parent="1">
          <mxGeometry x="100" y="430" width="120" height="60" as="geometry" />
        </mxCell>
        <mxCell id="9mMANpVzmbLBMYKmAXG6-11" value="获取RMBC" style="rounded=0;whiteSpace=wrap;html=1;" vertex="1" parent="1">
          <mxGeometry x="100" y="525" width="120" height="60" as="geometry" />
        </mxCell>
      </root>
    </mxGraphModel>
  </diagram>
</mxfile>
